<svg width="267" height="267" viewBox="0 0 267 267" fill="none" xmlns="http://www.w3.org/2000/svg">
<path d="M110.33 266.84C68.6899 266.84 29.5398 250.62 0.0898438 221.18L1.49985 219.77C61.5098 279.78 159.14 279.78 219.15 219.77C248.22 190.7 264.23 152.05 264.23 110.95C264.23 69.85 248.22 31.19 219.15 2.12997L220.56 0.719971C250.01 30.17 266.22 69.32 266.22 110.96C266.22 152.6 250 191.75 220.56 221.2C191.12 250.63 151.97 266.84 110.33 266.84Z" fill="#FF6D00"/>
<path d="M110.33 256.05C73.15 256.05 35.9799 241.9 7.67993 213.6L9.08994 212.19C64.9099 268.01 155.74 268.01 211.57 212.19C267.39 156.37 267.39 65.53 211.57 9.70999L212.98 8.29999C269.58 64.9 269.58 157 212.98 213.61C184.68 241.9 147.5 256.05 110.33 256.05Z" fill="#FF6D00"/>
<path d="M110.33 245.39C74.4198 245.39 40.6598 231.4 15.2598 206.01L16.6698 204.6C41.6898 229.62 74.9498 243.39 110.32 243.39C145.7 243.39 178.96 229.61 203.97 204.6C228.99 179.58 242.76 146.32 242.76 110.95C242.76 75.57 228.98 42.31 203.97 17.3L205.38 15.89C230.77 41.28 244.76 75.0499 244.76 110.96C244.76 146.87 230.77 180.63 205.38 206.03C180 231.4 146.24 245.39 110.33 245.39Z" fill="#FF6D00"/>
<path d="M110.33 234.6C78.6499 234.6 46.9699 222.54 22.8499 198.42L24.2599 197.01C71.7199 244.47 148.94 244.47 196.4 197.01C243.86 149.55 243.86 72.3299 196.4 24.8699L197.81 23.46C246.05 71.7 246.05 150.19 197.81 198.42C173.69 222.54 142.01 234.6 110.33 234.6Z" fill="#FF6D00"/>
<path d="M110.33 223.88C81.4 223.88 52.4599 212.87 30.4299 190.84L31.8399 189.43C75.1199 232.71 145.53 232.71 188.8 189.43C232.08 146.15 232.08 75.74 188.8 32.47L190.21 31.06C234.26 75.11 234.26 146.8 190.21 190.85C168.2 212.87 139.26 223.88 110.33 223.88Z" fill="#FF6D00"/>
<path d="M110.33 213.16C84.1398 213.16 57.9498 203.19 38.0198 183.26L39.4298 181.85C78.5198 220.94 142.13 220.94 181.22 181.85C200.16 162.91 210.59 137.73 210.59 110.95C210.59 84.17 200.16 58.99 181.22 40.05L182.63 38.64C201.95 57.95 212.58 83.64 212.58 110.95C212.58 138.26 201.94 163.95 182.63 183.26C162.7 203.19 136.52 213.16 110.33 213.16Z" fill="#FF6D00"/>
<path d="M110.33 202.44C86.8899 202.44 63.4499 193.52 45.5999 175.67L47.0099 174.26C81.9199 209.17 138.72 209.17 173.63 174.26C208.54 139.35 208.54 82.55 173.63 47.64L175.04 46.23C210.73 81.92 210.73 139.99 175.04 175.68C157.21 193.51 133.77 202.44 110.33 202.44Z" fill="#FF6D00"/>
</svg>
