<?xml version="1.0" encoding="UTF-8"?>
<!DOCTYPE svg PUBLIC "-//W3C//DTD SVG 1.1//EN" "http://www.w3.org/Graphics/SVG/1.1/DTD/svg11.dtd">
<!-- Creator: CorelDRAW -->
<svg xmlns="http://www.w3.org/2000/svg" xml:space="preserve" width="3.06074in" height="0.927106in" version="1.1" style="shape-rendering:geometricPrecision; text-rendering:geometricPrecision; image-rendering:optimizeQuality; fill-rule:evenodd; clip-rule:evenodd"
viewBox="0 0 443.69 134.39"
 xmlns:xlink="http://www.w3.org/1999/xlink"
 xmlns:xodm="http://www.corel.com/coreldraw/odm/2003">
 <defs>
  <style type="text/css">
   <![CDATA[
    .fil0 {fill:#005EA6}
    .fil1 {fill:#005EA6;fill-rule:nonzero}
   ]]>
  </style>
 </defs>
 <g id="Layer_x0020_1">
  <metadata id="CorelCorpID_0Corel-Layer"/>
  <polygon class="fil0" points="0,134.39 155.89,134.39 136.21,100.49 60.84,100.49 67.5,88.69 128.95,88.69 109.88,54.79 87.18,54.79 98.38,34.81 78.4,0 "/>
  <path class="fil1" d="M235.53 125.29c0,-0.16 0.01,-0.27 0.03,-0.34 0.02,-0.07 0.04,-0.12 0.04,-0.15 0,-0.19 0,-0.35 0.01,-0.47 0,-0.12 0,-0.23 0.01,-0.31 0,-0.08 0.01,-0.15 0.02,-0.2 0.01,-0.05 0.01,-0.11 0.02,-0.16 0,-0.06 0.01,-0.12 0.01,-0.18 0,-0.07 0,-0.16 0,-0.27 0,-0.4 -0.01,-0.81 -0.03,-1.22 -0.02,-0.41 -0.05,-0.82 -0.08,-1.24 -0.03,-0.42 -0.06,-0.84 -0.08,-1.27 -0.02,-0.43 -0.04,-0.86 -0.04,-1.29 0,-0.36 0,-0.67 0.01,-0.91 0.01,-0.25 0.03,-0.44 0.07,-0.59 0.04,-0.15 0.09,-0.25 0.17,-0.32 0.08,-0.06 0.18,-0.1 0.32,-0.1 0.09,0 0.18,0.02 0.27,0.06 0.09,0.04 0.16,0.1 0.23,0.17 0.07,0.07 0.12,0.15 0.16,0.25 0.04,0.09 0.06,0.19 0.06,0.29 0,0.19 -0,0.37 -0.01,0.56 -0.01,0.19 -0.01,0.37 -0.01,0.54 0,0.49 0.01,0.98 0.02,1.47 0.02,0.49 0.04,0.99 0.06,1.49 0.02,0.5 0.04,1.01 0.06,1.52 0.02,0.52 0.03,1.04 0.04,1.58 0,0.08 0.01,0.12 0.02,0.13 0.01,0.01 0.06,0.02 0.15,0.02 0.12,0 0.29,0.01 0.5,0.02 0.21,0.01 0.47,0.02 0.75,0.03 0.29,0.01 0.61,0.02 0.97,0.03 0.36,0.01 0.75,0.01 1.17,0.01 0.17,0 0.35,-0.02 0.52,-0.05 0.18,-0.04 0.36,-0.05 0.55,-0.05 0.09,0 0.18,0.02 0.26,0.06 0.08,0.04 0.15,0.1 0.21,0.16 0.06,0.07 0.11,0.14 0.14,0.23 0.03,0.08 0.05,0.17 0.05,0.27 0,0.08 -0.02,0.17 -0.07,0.25 -0.05,0.09 -0.11,0.16 -0.18,0.24 -0.08,0.07 -0.16,0.12 -0.25,0.17 -0.09,0.05 -0.18,0.07 -0.27,0.07 -0.13,0 -0.25,-0.01 -0.35,-0.03 -0.1,-0.02 -0.2,-0.04 -0.31,-0.07 -0.11,-0.03 -0.23,-0.05 -0.36,-0.07 -0.13,-0.02 -0.3,-0.03 -0.49,-0.03 -0.46,0 -0.92,0.03 -1.39,0.07 -0.47,0.05 -0.93,0.07 -1.39,0.07 -0.16,0 -0.31,-0.02 -0.47,-0.05 -0.15,-0.03 -0.31,-0.04 -0.48,-0.04 -0.03,0 -0.07,0 -0.14,0.01 -0.07,0.01 -0.13,0.01 -0.19,0.01 -0.09,0 -0.16,-0.02 -0.23,-0.06 -0.06,-0.04 -0.1,-0.14 -0.1,-0.29z"/>
  <path id="_1" class="fil1" d="M244.89 116.66c-0.08,0 -0.19,-0.02 -0.33,-0.06 -0.15,-0.04 -0.29,-0.1 -0.43,-0.17 -0.14,-0.08 -0.26,-0.18 -0.36,-0.3 -0.1,-0.12 -0.16,-0.26 -0.16,-0.42 0,-0.08 0.02,-0.16 0.05,-0.24 0.03,-0.08 0.08,-0.16 0.14,-0.23 0.06,-0.07 0.13,-0.12 0.21,-0.17 0.08,-0.04 0.17,-0.07 0.28,-0.07 0.09,0 0.2,0.04 0.33,0.1 0.13,0.07 0.26,0.16 0.38,0.27 0.12,0.11 0.22,0.23 0.31,0.36 0.09,0.13 0.13,0.26 0.13,0.38 0,0.03 -0.01,0.08 -0.03,0.14 -0.02,0.06 -0.05,0.12 -0.1,0.18 -0.04,0.06 -0.1,0.11 -0.16,0.16 -0.07,0.04 -0.15,0.07 -0.24,0.07zm-0.96 8.54c-0.01,-0.04 -0.02,-0.11 -0.03,-0.21 -0.01,-0.11 -0.02,-0.28 -0.03,-0.52 -0.01,-0.24 -0.02,-0.57 -0.03,-0.99 -0.01,-0.42 -0.01,-0.95 -0.01,-1.61 0,-0.51 0.03,-1.04 0.09,-1.58 0.06,-0.54 0.14,-1.05 0.23,-1.53 0,-0.04 0.02,-0.1 0.05,-0.17 0.03,-0.07 0.07,-0.14 0.12,-0.21 0.05,-0.07 0.12,-0.13 0.19,-0.19 0.07,-0.05 0.16,-0.08 0.25,-0.08 0.1,0 0.18,0.02 0.25,0.05 0.07,0.04 0.12,0.08 0.15,0.15 0.03,0.06 0.06,0.13 0.07,0.21 0.01,0.08 0.02,0.16 0.02,0.25 0,0.24 -0.01,0.51 -0.03,0.8 -0.02,0.29 -0.04,0.59 -0.06,0.89 -0.02,0.3 -0.04,0.59 -0.05,0.88 -0.02,0.29 -0.02,0.55 -0.02,0.78 0,0.21 0.01,0.44 0.04,0.7 0.03,0.26 0.06,0.53 0.1,0.81 0.04,0.28 0.07,0.55 0.1,0.81 0.03,0.26 0.05,0.51 0.05,0.72 0,0.23 -0.06,0.4 -0.17,0.52 -0.11,0.12 -0.24,0.18 -0.39,0.18 -0.27,0 -0.48,-0.05 -0.62,-0.15 -0.14,-0.1 -0.23,-0.27 -0.28,-0.52z"/>
  <path id="_2" class="fil1" d="M249.23 124.98c0,-0.04 -0.01,-0.11 -0.02,-0.22 -0.01,-0.1 -0.03,-0.23 -0.05,-0.37 -0.02,-0.14 -0.03,-0.29 -0.05,-0.46 -0.01,-0.16 -0.02,-0.32 -0.02,-0.48 0,-0.13 0,-0.32 0.01,-0.58 0,-0.26 0.01,-0.55 0.01,-0.89 0,-0.33 0.01,-0.69 0.01,-1.08 0,-0.39 0.01,-0.78 0.01,-1.17l-0.06 0 -1.29 0.08c-0.09,0 -0.18,-0.02 -0.25,-0.05 -0.08,-0.04 -0.15,-0.08 -0.2,-0.14 -0.05,-0.06 -0.1,-0.12 -0.13,-0.19 -0.03,-0.07 -0.05,-0.14 -0.05,-0.22 0,-0.09 0.02,-0.17 0.05,-0.25 0.03,-0.08 0.08,-0.15 0.13,-0.21 0.06,-0.06 0.13,-0.11 0.2,-0.15 0.08,-0.04 0.16,-0.05 0.25,-0.05l1.34 0.03c0.01,0 0.02,0 0.03,0 0.01,0 0.03,0 0.04,0 0.02,-0.12 0.04,-0.24 0.06,-0.37 0.02,-0.13 0.04,-0.25 0.07,-0.37 0.02,-0.12 0.04,-0.22 0.06,-0.31 0.02,-0.09 0.03,-0.15 0.04,-0.18 0.2,-0.76 0.55,-1.34 1.07,-1.73 0.51,-0.39 1.15,-0.59 1.92,-0.59 0.08,0 0.18,0.01 0.31,0.04 0.13,0.02 0.27,0.06 0.42,0.1 0.15,0.04 0.3,0.1 0.45,0.16 0.15,0.06 0.29,0.14 0.41,0.22 0.12,0.08 0.22,0.17 0.3,0.27 0.08,0.1 0.12,0.2 0.12,0.32 0,0.04 -0.01,0.1 -0.01,0.16 -0.01,0.07 -0.02,0.14 -0.05,0.2 -0.03,0.07 -0.06,0.12 -0.11,0.17 -0.05,0.05 -0.11,0.07 -0.2,0.07 -0.17,0 -0.31,-0.03 -0.42,-0.08 -0.11,-0.05 -0.21,-0.11 -0.32,-0.19 -0.1,-0.07 -0.22,-0.13 -0.35,-0.19 -0.13,-0.05 -0.31,-0.08 -0.53,-0.08 -0.39,0 -0.7,0.07 -0.93,0.2 -0.24,0.13 -0.42,0.31 -0.56,0.53 -0.14,0.22 -0.23,0.48 -0.29,0.77 -0.06,0.29 -0.1,0.59 -0.12,0.9 0.18,0 0.35,0.01 0.49,0.01 0.14,0 0.27,0 0.38,0 0.11,0 0.21,0 0.3,-0 0.09,-0 0.17,-0 0.25,-0 0.13,0 0.27,-0 0.41,-0 0.14,-0 0.27,-0.01 0.41,-0.02l0.01 0c0.08,-0.01 0.17,-0.02 0.26,-0.02 0.09,-0 0.18,-0.01 0.27,-0.01 0.06,0 0.12,0.01 0.19,0.02 0.07,0.02 0.13,0.05 0.18,0.09 0.06,0.04 0.1,0.1 0.13,0.18 0.03,0.08 0.05,0.17 0.05,0.29 0,0.16 -0.03,0.29 -0.08,0.38 -0.06,0.09 -0.13,0.16 -0.21,0.2 -0.08,0.05 -0.17,0.07 -0.26,0.08 -0.09,0.01 -0.18,0.01 -0.24,0.01 -0.09,0 -0.19,-0.01 -0.3,-0.01 -0.12,-0.01 -0.26,-0.02 -0.43,-0.03 -0.17,-0.01 -0.38,-0.03 -0.63,-0.03 -0.25,-0.01 -0.55,-0.01 -0.89,-0.01 -0.03,0 -0.06,-0 -0.1,-0.01 -0.04,-0.01 -0.11,-0.01 -0.21,-0.01 -0.01,0.35 -0.02,0.71 -0.02,1.09 -0,0.39 -0.01,0.8 -0.01,1.23 0,0.21 -0,0.41 -0.01,0.6 -0.01,0.19 -0.01,0.39 -0.01,0.58 0,0.09 0.01,0.18 0.01,0.28 0.01,0.1 0.02,0.21 0.04,0.35 0.02,0.14 0.04,0.31 0.07,0.5 0.03,0.2 0.07,0.44 0.12,0.74 0.04,0.26 0.01,0.44 -0.08,0.55 -0.1,0.1 -0.23,0.15 -0.39,0.15 -0.19,0 -0.34,-0.01 -0.47,-0.04 -0.12,-0.03 -0.22,-0.07 -0.29,-0.13 -0.07,-0.06 -0.12,-0.14 -0.15,-0.24 -0.03,-0.1 -0.04,-0.23 -0.04,-0.38z"/>
  <path id="_3" class="fil1" d="M255.04 122.42c0,-0.65 0.09,-1.24 0.28,-1.77 0.19,-0.53 0.47,-0.98 0.83,-1.35 0.37,-0.37 0.82,-0.66 1.35,-0.86 0.53,-0.2 1.15,-0.3 1.85,-0.3 0.24,0 0.48,0.03 0.73,0.07 0.25,0.05 0.49,0.12 0.73,0.22 0.24,0.1 0.46,0.22 0.66,0.36 0.21,0.14 0.39,0.31 0.55,0.49 0.16,0.19 0.28,0.39 0.37,0.62 0.09,0.23 0.13,0.47 0.13,0.74 0,0.2 -0.05,0.35 -0.14,0.45 -0.09,0.09 -0.21,0.16 -0.36,0.19 -0.13,0.04 -0.29,0.07 -0.47,0.1 -0.18,0.03 -0.37,0.08 -0.59,0.15l-4.6 1.43c0.06,0.28 0.16,0.52 0.29,0.72 0.13,0.2 0.29,0.36 0.47,0.49 0.18,0.13 0.38,0.24 0.59,0.32 0.21,0.08 0.43,0.14 0.64,0.18 0.21,0.04 0.43,0.06 0.63,0.07 0.2,0.01 0.39,0.02 0.55,0.02 0.26,0 0.52,-0.03 0.78,-0.09 0.26,-0.06 0.49,-0.12 0.71,-0.2 0.22,-0.07 0.41,-0.14 0.57,-0.2 0.16,-0.06 0.28,-0.09 0.35,-0.09 0.24,0 0.42,0.06 0.53,0.17 0.11,0.11 0.17,0.28 0.17,0.51 0,0.15 -0.08,0.28 -0.23,0.39 -0.16,0.11 -0.35,0.2 -0.6,0.28 -0.24,0.07 -0.51,0.13 -0.81,0.17 -0.3,0.04 -0.58,0.08 -0.87,0.1 -0.28,0.02 -0.54,0.03 -0.78,0.04 -0.23,0.01 -0.41,0.01 -0.53,0.01 -0.32,0 -0.63,-0.04 -0.95,-0.12 -0.31,-0.08 -0.61,-0.19 -0.89,-0.34 -0.28,-0.15 -0.55,-0.32 -0.78,-0.53 -0.24,-0.21 -0.45,-0.44 -0.63,-0.7 -0.18,-0.25 -0.31,-0.53 -0.41,-0.82 -0.1,-0.29 -0.15,-0.6 -0.15,-0.92zm1.28 -0.54c0.22,-0.06 0.47,-0.14 0.74,-0.22 0.28,-0.08 0.57,-0.17 0.88,-0.27 0.31,-0.09 0.62,-0.19 0.94,-0.29 0.32,-0.1 0.62,-0.2 0.92,-0.3 0.3,-0.1 0.57,-0.19 0.82,-0.28 0.25,-0.09 0.46,-0.17 0.63,-0.25 -0.05,-0.17 -0.14,-0.32 -0.26,-0.45 -0.12,-0.12 -0.27,-0.23 -0.45,-0.31 -0.18,-0.08 -0.39,-0.14 -0.63,-0.18 -0.24,-0.04 -0.5,-0.06 -0.78,-0.06 -0.13,0 -0.28,0.02 -0.46,0.05 -0.18,0.04 -0.36,0.09 -0.56,0.18 -0.19,0.08 -0.39,0.19 -0.59,0.32 -0.2,0.13 -0.38,0.3 -0.55,0.49 -0.17,0.19 -0.31,0.42 -0.43,0.68 -0.12,0.26 -0.2,0.56 -0.24,0.89z"/>
  <path id="_4" class="fil1" d="M271.19 116.66c-0.08,0 -0.19,-0.02 -0.33,-0.06 -0.15,-0.04 -0.29,-0.1 -0.43,-0.17 -0.14,-0.08 -0.26,-0.18 -0.36,-0.3 -0.1,-0.12 -0.16,-0.26 -0.16,-0.42 0,-0.08 0.02,-0.16 0.05,-0.24 0.03,-0.08 0.08,-0.16 0.14,-0.23 0.06,-0.07 0.13,-0.12 0.21,-0.17 0.08,-0.04 0.17,-0.07 0.28,-0.07 0.09,0 0.2,0.04 0.33,0.1 0.13,0.07 0.26,0.16 0.38,0.27 0.12,0.11 0.22,0.23 0.31,0.36 0.09,0.13 0.13,0.26 0.13,0.38 0,0.03 -0.01,0.08 -0.03,0.14 -0.02,0.06 -0.05,0.12 -0.1,0.18 -0.04,0.06 -0.1,0.11 -0.16,0.16 -0.07,0.04 -0.15,0.07 -0.24,0.07zm-0.96 8.54c-0.01,-0.04 -0.02,-0.11 -0.03,-0.21 -0.01,-0.11 -0.02,-0.28 -0.03,-0.52 -0.01,-0.24 -0.02,-0.57 -0.03,-0.99 -0.01,-0.42 -0.01,-0.95 -0.01,-1.61 0,-0.51 0.03,-1.04 0.09,-1.58 0.06,-0.54 0.14,-1.05 0.23,-1.53 0,-0.04 0.02,-0.1 0.05,-0.17 0.03,-0.07 0.07,-0.14 0.12,-0.21 0.05,-0.07 0.12,-0.13 0.19,-0.19 0.07,-0.05 0.16,-0.08 0.25,-0.08 0.1,0 0.18,0.02 0.25,0.05 0.07,0.04 0.12,0.08 0.15,0.15 0.03,0.06 0.06,0.13 0.07,0.21 0.01,0.08 0.02,0.16 0.02,0.25 0,0.24 -0.01,0.51 -0.03,0.8 -0.02,0.29 -0.04,0.59 -0.06,0.89 -0.02,0.3 -0.04,0.59 -0.05,0.88 -0.02,0.29 -0.02,0.55 -0.02,0.78 0,0.21 0.01,0.44 0.04,0.7 0.03,0.26 0.06,0.53 0.1,0.81 0.04,0.28 0.07,0.55 0.1,0.81 0.03,0.26 0.05,0.51 0.05,0.72 0,0.23 -0.06,0.4 -0.17,0.52 -0.11,0.12 -0.24,0.18 -0.39,0.18 -0.27,0 -0.48,-0.05 -0.62,-0.15 -0.14,-0.1 -0.23,-0.27 -0.28,-0.52z"/>
  <path id="_5" class="fil1" d="M274.66 124.61c0,-0.06 0.03,-0.14 0.08,-0.24 0.05,-0.1 0.11,-0.2 0.19,-0.28 0.07,-0.08 0.16,-0.14 0.25,-0.16 0.09,-0.02 0.18,0.01 0.26,0.1 0.15,0.17 0.29,0.3 0.41,0.4 0.12,0.1 0.25,0.17 0.39,0.21 0.13,0.04 0.28,0.07 0.45,0.08 0.16,0.01 0.36,0.01 0.59,0.01 0.27,0 0.56,-0.03 0.84,-0.09 0.29,-0.06 0.55,-0.13 0.79,-0.22 0.24,-0.09 0.43,-0.17 0.58,-0.26 0.15,-0.09 0.23,-0.17 0.23,-0.22 0,-0.07 -0.05,-0.15 -0.14,-0.23 -0.09,-0.08 -0.22,-0.15 -0.38,-0.22 -0.16,-0.07 -0.35,-0.13 -0.56,-0.2 -0.22,-0.06 -0.44,-0.11 -0.69,-0.16 -0.28,-0.04 -0.58,-0.08 -0.87,-0.12 -0.3,-0.04 -0.58,-0.11 -0.86,-0.18 -0.28,-0.07 -0.54,-0.16 -0.79,-0.27 -0.25,-0.1 -0.47,-0.23 -0.66,-0.39 -0.19,-0.16 -0.34,-0.34 -0.44,-0.56 -0.11,-0.22 -0.16,-0.47 -0.16,-0.76 0,-0.31 0.05,-0.6 0.16,-0.87 0.11,-0.27 0.26,-0.51 0.44,-0.73 0.19,-0.22 0.4,-0.42 0.65,-0.58 0.25,-0.17 0.52,-0.31 0.81,-0.43 0.29,-0.12 0.59,-0.2 0.9,-0.26 0.31,-0.06 0.62,-0.09 0.93,-0.09 0.32,0 0.61,0.04 0.88,0.12 0.27,0.08 0.49,0.19 0.67,0.32 0.18,0.13 0.33,0.28 0.43,0.45 0.1,0.17 0.15,0.35 0.15,0.53 0,0.12 -0,0.25 -0.01,0.39 -0,0.15 -0.02,0.29 -0.06,0.42 -0.03,0.13 -0.09,0.24 -0.17,0.33 -0.08,0.09 -0.19,0.13 -0.34,0.13 -0.09,0 -0.16,-0.02 -0.21,-0.06 -0.05,-0.04 -0.08,-0.08 -0.11,-0.14 -0.02,-0.05 -0.04,-0.12 -0.04,-0.18 -0,-0.07 -0.01,-0.13 -0.01,-0.18 0,-0.18 -0.03,-0.32 -0.09,-0.43 -0.06,-0.11 -0.15,-0.2 -0.27,-0.26 -0.12,-0.06 -0.26,-0.11 -0.44,-0.13 -0.17,-0.02 -0.37,-0.03 -0.59,-0.03 -0.15,0 -0.32,0.02 -0.5,0.06 -0.18,0.04 -0.36,0.1 -0.54,0.17 -0.18,0.07 -0.36,0.16 -0.53,0.26 -0.17,0.1 -0.32,0.21 -0.45,0.33 -0.13,0.12 -0.24,0.25 -0.32,0.38 -0.08,0.13 -0.12,0.27 -0.12,0.41 0,0.18 0.07,0.33 0.21,0.44 0.14,0.12 0.33,0.21 0.56,0.29 0.23,0.08 0.5,0.14 0.79,0.2 0.3,0.05 0.6,0.1 0.91,0.15 0.38,0.06 0.75,0.13 1.13,0.22 0.37,0.09 0.7,0.21 0.99,0.36 0.29,0.15 0.53,0.35 0.71,0.58 0.18,0.23 0.27,0.53 0.27,0.88 0,0.25 -0.07,0.47 -0.21,0.66 -0.14,0.2 -0.33,0.37 -0.55,0.52 -0.23,0.15 -0.48,0.27 -0.77,0.38 -0.28,0.11 -0.57,0.19 -0.86,0.26 -0.29,0.07 -0.56,0.12 -0.82,0.15 -0.26,0.03 -0.48,0.05 -0.66,0.05 -0.14,0 -0.29,-0.01 -0.47,-0.02 -0.17,-0.01 -0.35,-0.03 -0.53,-0.07 -0.18,-0.03 -0.35,-0.08 -0.53,-0.14 -0.17,-0.06 -0.32,-0.14 -0.46,-0.24 -0.13,-0.1 -0.24,-0.22 -0.32,-0.36 -0.08,-0.14 -0.12,-0.31 -0.12,-0.51z"/>
  <path id="_6" class="fil1" d="M289.01 124.61c0,-0.06 0.03,-0.14 0.08,-0.24 0.05,-0.1 0.11,-0.2 0.19,-0.28 0.07,-0.08 0.16,-0.14 0.25,-0.16 0.09,-0.02 0.18,0.01 0.26,0.1 0.15,0.17 0.29,0.3 0.41,0.4 0.12,0.1 0.25,0.17 0.39,0.21 0.13,0.04 0.28,0.07 0.45,0.08 0.16,0.01 0.36,0.01 0.59,0.01 0.27,0 0.56,-0.03 0.84,-0.09 0.29,-0.06 0.55,-0.13 0.79,-0.22 0.24,-0.09 0.43,-0.17 0.58,-0.26 0.15,-0.09 0.23,-0.17 0.23,-0.22 0,-0.07 -0.05,-0.15 -0.14,-0.23 -0.09,-0.08 -0.22,-0.15 -0.38,-0.22 -0.16,-0.07 -0.35,-0.13 -0.56,-0.2 -0.22,-0.06 -0.44,-0.11 -0.69,-0.16 -0.28,-0.04 -0.58,-0.08 -0.87,-0.12 -0.3,-0.04 -0.58,-0.11 -0.86,-0.18 -0.28,-0.07 -0.54,-0.16 -0.79,-0.27 -0.25,-0.1 -0.47,-0.23 -0.66,-0.39 -0.19,-0.16 -0.34,-0.34 -0.44,-0.56 -0.11,-0.22 -0.16,-0.47 -0.16,-0.76 0,-0.31 0.05,-0.6 0.16,-0.87 0.11,-0.27 0.26,-0.51 0.44,-0.73 0.19,-0.22 0.4,-0.42 0.65,-0.58 0.25,-0.17 0.52,-0.31 0.81,-0.43 0.29,-0.12 0.59,-0.2 0.9,-0.26 0.31,-0.06 0.62,-0.09 0.93,-0.09 0.32,0 0.61,0.04 0.88,0.12 0.27,0.08 0.49,0.19 0.67,0.32 0.18,0.13 0.33,0.28 0.43,0.45 0.1,0.17 0.15,0.35 0.15,0.53 0,0.12 -0,0.25 -0.01,0.39 -0,0.15 -0.02,0.29 -0.06,0.42 -0.03,0.13 -0.09,0.24 -0.17,0.33 -0.08,0.09 -0.19,0.13 -0.34,0.13 -0.09,0 -0.16,-0.02 -0.21,-0.06 -0.05,-0.04 -0.08,-0.08 -0.11,-0.14 -0.02,-0.05 -0.04,-0.12 -0.04,-0.18 -0,-0.07 -0.01,-0.13 -0.01,-0.18 0,-0.18 -0.03,-0.32 -0.09,-0.43 -0.06,-0.11 -0.15,-0.2 -0.27,-0.26 -0.12,-0.06 -0.26,-0.11 -0.44,-0.13 -0.17,-0.02 -0.37,-0.03 -0.59,-0.03 -0.15,0 -0.32,0.02 -0.5,0.06 -0.18,0.04 -0.36,0.1 -0.54,0.17 -0.18,0.07 -0.36,0.16 -0.53,0.26 -0.17,0.1 -0.32,0.21 -0.45,0.33 -0.13,0.12 -0.24,0.25 -0.32,0.38 -0.08,0.13 -0.12,0.27 -0.12,0.41 0,0.18 0.07,0.33 0.21,0.44 0.14,0.12 0.33,0.21 0.56,0.29 0.23,0.08 0.5,0.14 0.79,0.2 0.3,0.05 0.6,0.1 0.91,0.15 0.38,0.06 0.75,0.13 1.13,0.22 0.37,0.09 0.7,0.21 0.99,0.36 0.29,0.15 0.53,0.35 0.71,0.58 0.18,0.23 0.27,0.53 0.27,0.88 0,0.25 -0.07,0.47 -0.21,0.66 -0.14,0.2 -0.33,0.37 -0.55,0.52 -0.23,0.15 -0.48,0.27 -0.77,0.38 -0.28,0.11 -0.57,0.19 -0.86,0.26 -0.29,0.07 -0.56,0.12 -0.82,0.15 -0.26,0.03 -0.48,0.05 -0.66,0.05 -0.14,0 -0.29,-0.01 -0.47,-0.02 -0.17,-0.01 -0.35,-0.03 -0.53,-0.07 -0.18,-0.03 -0.35,-0.08 -0.53,-0.14 -0.17,-0.06 -0.32,-0.14 -0.46,-0.24 -0.13,-0.1 -0.24,-0.22 -0.32,-0.36 -0.08,-0.14 -0.12,-0.31 -0.12,-0.51z"/>
  <path id="_7" class="fil1" d="M297.77 116.4c0,-0.07 0.02,-0.16 0.06,-0.26 0.04,-0.1 0.09,-0.19 0.15,-0.28 0.07,-0.09 0.15,-0.16 0.24,-0.22 0.09,-0.06 0.2,-0.09 0.3,-0.09 0.16,0 0.29,0.05 0.4,0.16 0.11,0.11 0.16,0.23 0.16,0.36 0,0.18 -0.01,0.37 -0.01,0.58 -0.01,0.21 -0.01,0.42 -0.02,0.64 -0.01,0.22 -0.01,0.45 -0.02,0.68 -0.01,0.23 -0.01,0.45 -0.01,0.67l0 0.52c0.29,-0.3 0.63,-0.53 1.02,-0.69 0.39,-0.16 0.8,-0.24 1.24,-0.24 0.18,0 0.36,0.01 0.55,0.03 0.19,0.02 0.38,0.05 0.56,0.09 0.19,0.04 0.37,0.09 0.55,0.16 0.18,0.06 0.34,0.14 0.5,0.22 0.42,0.24 0.75,0.48 0.99,0.73 0.24,0.25 0.43,0.5 0.55,0.78 0.12,0.27 0.2,0.57 0.24,0.88 0.03,0.31 0.05,0.66 0.04,1.03l-0.01 2.56c0,0.1 -0,0.21 -0.01,0.35 -0.01,0.14 -0.03,0.28 -0.08,0.41 -0.05,0.13 -0.12,0.25 -0.21,0.34 -0.1,0.09 -0.24,0.14 -0.41,0.14 -0.11,0 -0.21,-0.02 -0.3,-0.06 -0.09,-0.04 -0.17,-0.1 -0.24,-0.17 -0.07,-0.07 -0.12,-0.15 -0.15,-0.25 -0.03,-0.09 -0.05,-0.2 -0.05,-0.31 0,-0.25 0.01,-0.49 0.03,-0.73 0.02,-0.24 0.04,-0.48 0.07,-0.72 0.02,-0.24 0.05,-0.48 0.07,-0.72 0.02,-0.24 0.03,-0.48 0.03,-0.73 0,-0.17 -0.01,-0.36 -0.02,-0.57 -0.01,-0.21 -0.05,-0.41 -0.11,-0.62 -0.06,-0.21 -0.14,-0.41 -0.26,-0.61 -0.11,-0.19 -0.27,-0.37 -0.47,-0.52 -0.2,-0.15 -0.45,-0.27 -0.75,-0.36 -0.3,-0.09 -0.66,-0.13 -1.09,-0.13 -0.29,0 -0.58,0.05 -0.85,0.16 -0.27,0.1 -0.51,0.23 -0.72,0.39 -0.21,0.16 -0.38,0.33 -0.5,0.51 -0.12,0.18 -0.19,0.36 -0.19,0.52l0 2.9c0,0.14 0.01,0.3 0.03,0.49 0.02,0.18 0.03,0.35 0.03,0.51 0,0.09 -0.01,0.18 -0.01,0.28 -0.01,0.09 -0.03,0.18 -0.06,0.25 -0.04,0.08 -0.09,0.14 -0.16,0.19 -0.08,0.05 -0.18,0.08 -0.32,0.08 -0.06,0 -0.13,-0.01 -0.22,-0.02 -0.09,-0.01 -0.17,-0.04 -0.25,-0.09 -0.08,-0.05 -0.15,-0.12 -0.21,-0.22 -0.06,-0.1 -0.09,-0.24 -0.09,-0.41l0.01 -8.59z"/>
  <path id="_8" class="fil1" d="M307.16 122.03c0,-0.71 0.11,-1.31 0.34,-1.81 0.23,-0.5 0.53,-0.9 0.9,-1.21 0.38,-0.31 0.8,-0.54 1.27,-0.67 0.48,-0.14 0.96,-0.21 1.46,-0.21 0.57,0 1.09,0.09 1.55,0.28 0.46,0.19 0.84,0.46 1.16,0.81 0.32,0.35 0.56,0.78 0.73,1.28 0.17,0.5 0.25,1.07 0.25,1.69 0,0.36 -0.05,0.7 -0.14,1.02 -0.1,0.32 -0.23,0.62 -0.4,0.89 -0.17,0.27 -0.37,0.52 -0.61,0.73 -0.24,0.21 -0.5,0.4 -0.78,0.55 -0.28,0.15 -0.58,0.27 -0.89,0.35 -0.31,0.08 -0.63,0.12 -0.95,0.12 -0.35,0 -0.69,-0.05 -1.01,-0.16 -0.33,-0.11 -0.64,-0.26 -0.93,-0.44 -0.29,-0.19 -0.55,-0.41 -0.8,-0.66 -0.24,-0.25 -0.45,-0.52 -0.62,-0.8 -0.17,-0.28 -0.31,-0.58 -0.4,-0.88 -0.1,-0.3 -0.14,-0.6 -0.14,-0.89zm1.19 -0.17c0,0.34 0.07,0.68 0.22,1.02 0.15,0.34 0.34,0.65 0.58,0.93 0.24,0.28 0.52,0.5 0.82,0.67 0.31,0.17 0.63,0.26 0.95,0.26 0.35,0 0.69,-0.06 1.01,-0.18 0.33,-0.12 0.62,-0.29 0.87,-0.52 0.25,-0.23 0.45,-0.51 0.6,-0.84 0.15,-0.33 0.23,-0.7 0.23,-1.13 0,-0.41 -0.06,-0.79 -0.17,-1.13 -0.11,-0.34 -0.27,-0.64 -0.47,-0.88 -0.2,-0.25 -0.43,-0.44 -0.71,-0.58 -0.27,-0.14 -0.57,-0.2 -0.89,-0.2 -0.36,0 -0.72,0.06 -1.08,0.17 -0.36,0.11 -0.69,0.28 -0.98,0.5 -0.29,0.22 -0.53,0.49 -0.71,0.81 -0.18,0.32 -0.27,0.69 -0.27,1.11z"/>
  <path id="_9" class="fil1" d="M317.04 124.8c0,-0.12 0.01,-0.24 0.02,-0.37 0.01,-0.13 0.02,-0.25 0.02,-0.37 0,-0.28 -0.01,-0.57 -0.04,-0.87 -0.02,-0.24 -0.04,-0.5 -0.04,-0.77 -0,-0.27 0,-0.5 0.02,-0.7l0.23 -2.72c0.02,-0.22 0.07,-0.39 0.17,-0.53 0.09,-0.13 0.26,-0.19 0.51,-0.19 0.1,0 0.19,0.02 0.27,0.05 0.08,0.03 0.14,0.08 0.19,0.13 0.05,0.05 0.09,0.11 0.13,0.18 0.03,0.07 0.05,0.13 0.07,0.2 0.19,-0.14 0.39,-0.26 0.62,-0.36 0.22,-0.1 0.46,-0.18 0.7,-0.25 0.24,-0.06 0.48,-0.11 0.72,-0.14 0.24,-0.03 0.48,-0.04 0.71,-0.04 0.19,0 0.41,0.01 0.66,0.04 0.25,0.03 0.48,0.08 0.7,0.16 0.22,0.08 0.41,0.2 0.56,0.36 0.15,0.16 0.23,0.37 0.23,0.63 0,0.19 -0.06,0.34 -0.18,0.46 -0.11,0.12 -0.27,0.17 -0.46,0.17 -0.15,0 -0.26,-0.03 -0.35,-0.1 -0.08,-0.07 -0.16,-0.14 -0.22,-0.22 -0.03,-0.03 -0.06,-0.07 -0.1,-0.1 -0.04,-0.04 -0.09,-0.07 -0.16,-0.1 -0.07,-0.03 -0.15,-0.06 -0.26,-0.08 -0.11,-0.02 -0.24,-0.03 -0.41,-0.03 -0.52,0 -0.97,0.05 -1.35,0.16 -0.38,0.11 -0.7,0.27 -0.94,0.5 -0.25,0.23 -0.43,0.52 -0.55,0.89 -0.12,0.36 -0.18,0.79 -0.18,1.3 0,0.19 0,0.37 0.01,0.53 0,0.17 0.01,0.33 0.02,0.5 0.01,0.17 0.02,0.33 0.04,0.5 0.01,0.17 0.03,0.35 0.04,0.55 0.01,0.15 0.02,0.3 0.04,0.45 0.02,0.16 0.03,0.31 0.03,0.45 0,0.04 -0.01,0.1 -0.04,0.17 -0.02,0.07 -0.06,0.15 -0.11,0.22 -0.05,0.07 -0.12,0.13 -0.21,0.19 -0.09,0.05 -0.19,0.08 -0.31,0.08 -0.16,0 -0.29,-0.02 -0.4,-0.06 -0.1,-0.04 -0.19,-0.09 -0.25,-0.17 -0.06,-0.08 -0.11,-0.17 -0.13,-0.29 -0.02,-0.11 -0.03,-0.25 -0.03,-0.41z"/>
  <path id="_10" class="fil1" d="M328.71 125.8c-0.45,0 -0.83,-0.09 -1.13,-0.27 -0.3,-0.18 -0.54,-0.42 -0.72,-0.73 -0.18,-0.31 -0.32,-0.66 -0.41,-1.05 -0.09,-0.39 -0.15,-0.8 -0.19,-1.22 -0.04,-0.43 -0.06,-0.85 -0.06,-1.27 -0,-0.42 -0.01,-0.81 -0.02,-1.17 -0.12,0 -0.24,0 -0.33,0 -0.1,0 -0.2,0 -0.29,0.01 -0.05,0 -0.11,0.01 -0.15,0.01 -0.05,0 -0.1,0 -0.15,0.01 -0.05,0 -0.11,0 -0.18,0.01 -0.07,0 -0.15,0 -0.24,0 -0.06,0 -0.13,-0.01 -0.22,-0.04 -0.09,-0.03 -0.18,-0.07 -0.28,-0.12 -0.09,-0.05 -0.17,-0.11 -0.24,-0.19 -0.07,-0.08 -0.1,-0.16 -0.1,-0.26 0,-0.1 0.02,-0.19 0.06,-0.27 0.04,-0.08 0.1,-0.15 0.17,-0.21 0.07,-0.06 0.15,-0.1 0.25,-0.14 0.1,-0.03 0.2,-0.05 0.3,-0.05l1.44 0.03c0.01,-0.11 0.03,-0.23 0.04,-0.35 0.01,-0.11 0.03,-0.23 0.04,-0.34 0.01,-0.13 0.02,-0.26 0.03,-0.37 0,-0.12 0.01,-0.23 0.02,-0.33 0.01,-0.11 0.02,-0.22 0.03,-0.32 0.01,-0.11 0.03,-0.22 0.06,-0.34 0.01,-0.08 0.05,-0.15 0.1,-0.23 0.05,-0.08 0.11,-0.14 0.18,-0.2 0.07,-0.06 0.14,-0.11 0.21,-0.15 0.07,-0.04 0.15,-0.05 0.22,-0.05 0.05,0 0.11,0.01 0.17,0.04 0.06,0.03 0.11,0.07 0.17,0.12 0.05,0.05 0.09,0.12 0.13,0.19 0.03,0.07 0.05,0.15 0.05,0.24 0,0.18 -0,0.34 -0.01,0.46 -0,0.12 -0.01,0.23 -0.01,0.32 -0.01,0.09 -0.01,0.16 -0.02,0.23 -0.01,0.06 -0.02,0.13 -0.03,0.19 -0.01,0.05 -0.02,0.1 -0.03,0.16 -0.01,0.06 -0.01,0.12 -0.02,0.2 -0,0.07 -0.01,0.16 -0.02,0.25 -0.01,0.09 -0.02,0.2 -0.03,0.33 0.26,-0 0.51,-0.01 0.74,-0.02 0.24,-0.01 0.47,-0.01 0.7,-0.02 0.23,-0.01 0.46,-0.01 0.7,-0.02 0.24,-0.01 0.49,-0.01 0.76,-0.01 0.09,0 0.17,0.02 0.24,0.07 0.07,0.05 0.13,0.11 0.18,0.18 0.05,0.07 0.08,0.14 0.11,0.22 0.03,0.08 0.04,0.14 0.04,0.2 0,0.1 -0.02,0.18 -0.06,0.26 -0.04,0.07 -0.09,0.14 -0.15,0.19 -0.06,0.05 -0.13,0.09 -0.2,0.11 -0.07,0.02 -0.14,0.04 -0.2,0.04l-2.81 -0.05c-0.02,0.02 -0.03,0.04 -0.03,0.06 0,0.24 -0,0.52 -0.01,0.84 -0.01,0.31 -0.01,0.63 -0,0.96 0.01,0.33 0.03,0.65 0.06,0.96 0.03,0.32 0.09,0.59 0.18,0.84 0.08,0.24 0.2,0.44 0.35,0.59 0.15,0.15 0.34,0.23 0.58,0.23 0.08,0 0.17,-0.02 0.28,-0.04 0.11,-0.03 0.22,-0.07 0.32,-0.11 0.11,-0.04 0.2,-0.09 0.3,-0.14 0.09,-0.05 0.16,-0.1 0.21,-0.14 0.05,-0.05 0.12,-0.09 0.2,-0.12 0.08,-0.04 0.15,-0.05 0.21,-0.05 0.17,0 0.29,0.04 0.33,0.13 0.05,0.08 0.07,0.2 0.07,0.35 0,0.05 -0.01,0.11 -0.04,0.18 -0.02,0.07 -0.05,0.13 -0.09,0.17 -0.09,0.11 -0.2,0.23 -0.34,0.35 -0.14,0.12 -0.29,0.23 -0.45,0.33 -0.16,0.1 -0.32,0.18 -0.49,0.24 -0.16,0.06 -0.32,0.1 -0.45,0.1z"/>
  <path id="_11" class="fil1" d="M332.06 127.22c0,-0.08 0.04,-0.2 0.12,-0.35 0.08,-0.16 0.18,-0.34 0.31,-0.53 0.12,-0.2 0.27,-0.4 0.43,-0.62 0.16,-0.22 0.32,-0.43 0.49,-0.63 0.16,-0.2 0.32,-0.39 0.47,-0.55 0.15,-0.17 0.28,-0.3 0.4,-0.39 0.05,-0.04 0.12,-0.08 0.2,-0.12 0.08,-0.04 0.2,-0.07 0.36,-0.07 0.1,0 0.17,0.02 0.23,0.05 0.05,0.04 0.1,0.08 0.13,0.13 0.03,0.05 0.05,0.11 0.06,0.16 0.01,0.05 0.01,0.09 0.01,0.13 0,0.12 -0.02,0.22 -0.06,0.32 -0.04,0.1 -0.09,0.19 -0.15,0.28 -0.06,0.09 -0.13,0.18 -0.21,0.26 -0.07,0.08 -0.15,0.16 -0.22,0.24 -0.03,0.04 -0.07,0.08 -0.09,0.11 -0.03,0.03 -0.05,0.06 -0.08,0.09 -0.02,0.03 -0.05,0.06 -0.08,0.09 -0.03,0.03 -0.07,0.08 -0.11,0.13 -0.06,0.08 -0.13,0.19 -0.2,0.31 -0.07,0.13 -0.15,0.26 -0.22,0.4 -0.08,0.14 -0.16,0.28 -0.24,0.42 -0.08,0.14 -0.17,0.27 -0.27,0.38 -0.1,0.11 -0.2,0.2 -0.3,0.27 -0.11,0.07 -0.22,0.11 -0.34,0.11 -0.08,0 -0.16,-0.01 -0.24,-0.04 -0.07,-0.03 -0.14,-0.07 -0.2,-0.12 -0.06,-0.05 -0.1,-0.12 -0.14,-0.19 -0.04,-0.07 -0.05,-0.16 -0.05,-0.25z"/>
  <path id="_12" class="fil1" d="M346.3 125.8c-0.45,0 -0.83,-0.09 -1.13,-0.27 -0.3,-0.18 -0.54,-0.42 -0.72,-0.73 -0.18,-0.31 -0.32,-0.66 -0.41,-1.05 -0.09,-0.39 -0.15,-0.8 -0.19,-1.22 -0.04,-0.43 -0.06,-0.85 -0.06,-1.27 -0,-0.42 -0.01,-0.81 -0.02,-1.17 -0.12,0 -0.24,0 -0.33,0 -0.1,0 -0.2,0 -0.29,0.01 -0.05,0 -0.11,0.01 -0.15,0.01 -0.05,0 -0.1,0 -0.15,0.01 -0.05,0 -0.11,0 -0.18,0.01 -0.07,0 -0.15,0 -0.24,0 -0.06,0 -0.13,-0.01 -0.22,-0.04 -0.09,-0.03 -0.18,-0.07 -0.28,-0.12 -0.09,-0.05 -0.17,-0.11 -0.24,-0.19 -0.07,-0.08 -0.1,-0.16 -0.1,-0.26 0,-0.1 0.02,-0.19 0.06,-0.27 0.04,-0.08 0.1,-0.15 0.17,-0.21 0.07,-0.06 0.15,-0.1 0.25,-0.14 0.1,-0.03 0.2,-0.05 0.3,-0.05l1.44 0.03c0.01,-0.11 0.03,-0.23 0.04,-0.35 0.01,-0.11 0.03,-0.23 0.04,-0.34 0.01,-0.13 0.02,-0.26 0.03,-0.37 0,-0.12 0.01,-0.23 0.02,-0.33 0.01,-0.11 0.02,-0.22 0.03,-0.32 0.01,-0.11 0.03,-0.22 0.06,-0.34 0.01,-0.08 0.05,-0.15 0.1,-0.23 0.05,-0.08 0.11,-0.14 0.18,-0.2 0.07,-0.06 0.14,-0.11 0.21,-0.15 0.07,-0.04 0.15,-0.05 0.22,-0.05 0.05,0 0.11,0.01 0.17,0.04 0.06,0.03 0.11,0.07 0.17,0.12 0.05,0.05 0.09,0.12 0.13,0.19 0.03,0.07 0.05,0.15 0.05,0.24 0,0.18 -0,0.34 -0.01,0.46 -0,0.12 -0.01,0.23 -0.01,0.32 -0.01,0.09 -0.01,0.16 -0.02,0.23 -0.01,0.06 -0.02,0.13 -0.03,0.19 -0.01,0.05 -0.02,0.1 -0.03,0.16 -0.01,0.06 -0.01,0.12 -0.02,0.2 -0,0.07 -0.01,0.16 -0.02,0.25 -0.01,0.09 -0.02,0.2 -0.03,0.33 0.26,-0 0.51,-0.01 0.74,-0.02 0.24,-0.01 0.47,-0.01 0.7,-0.02 0.23,-0.01 0.46,-0.01 0.7,-0.02 0.24,-0.01 0.49,-0.01 0.76,-0.01 0.09,0 0.17,0.02 0.24,0.07 0.07,0.05 0.13,0.11 0.18,0.18 0.05,0.07 0.08,0.14 0.11,0.22 0.03,0.08 0.04,0.14 0.04,0.2 0,0.1 -0.02,0.18 -0.06,0.26 -0.04,0.07 -0.09,0.14 -0.15,0.19 -0.06,0.05 -0.13,0.09 -0.2,0.11 -0.07,0.02 -0.14,0.04 -0.2,0.04l-2.81 -0.05c-0.02,0.02 -0.03,0.04 -0.03,0.06 0,0.24 -0,0.52 -0.01,0.84 -0.01,0.31 -0.01,0.63 -0,0.96 0.01,0.33 0.03,0.65 0.06,0.96 0.03,0.32 0.09,0.59 0.18,0.84 0.08,0.24 0.2,0.44 0.35,0.59 0.15,0.15 0.34,0.23 0.58,0.23 0.08,0 0.17,-0.02 0.28,-0.04 0.11,-0.03 0.22,-0.07 0.32,-0.11 0.11,-0.04 0.2,-0.09 0.3,-0.14 0.09,-0.05 0.16,-0.1 0.21,-0.14 0.05,-0.05 0.12,-0.09 0.2,-0.12 0.08,-0.04 0.15,-0.05 0.21,-0.05 0.17,0 0.29,0.04 0.33,0.13 0.05,0.08 0.07,0.2 0.07,0.35 0,0.05 -0.01,0.11 -0.04,0.18 -0.02,0.07 -0.05,0.13 -0.09,0.17 -0.09,0.11 -0.2,0.23 -0.34,0.35 -0.14,0.12 -0.29,0.23 -0.45,0.33 -0.16,0.1 -0.32,0.18 -0.49,0.24 -0.16,0.06 -0.32,0.1 -0.45,0.1z"/>
  <path id="_13" class="fil1" d="M350.6 124.8c0,-0.12 0.01,-0.24 0.02,-0.37 0.01,-0.13 0.02,-0.25 0.02,-0.37 0,-0.28 -0.01,-0.57 -0.04,-0.87 -0.02,-0.24 -0.04,-0.5 -0.04,-0.77 -0,-0.27 0,-0.5 0.02,-0.7l0.23 -2.72c0.02,-0.22 0.07,-0.39 0.17,-0.53 0.09,-0.13 0.26,-0.19 0.51,-0.19 0.1,0 0.19,0.02 0.27,0.05 0.08,0.03 0.14,0.08 0.19,0.13 0.05,0.05 0.09,0.11 0.13,0.18 0.03,0.07 0.05,0.13 0.07,0.2 0.19,-0.14 0.39,-0.26 0.62,-0.36 0.22,-0.1 0.46,-0.18 0.7,-0.25 0.24,-0.06 0.48,-0.11 0.72,-0.14 0.24,-0.03 0.48,-0.04 0.71,-0.04 0.19,0 0.41,0.01 0.66,0.04 0.25,0.03 0.48,0.08 0.7,0.16 0.22,0.08 0.41,0.2 0.56,0.36 0.15,0.16 0.23,0.37 0.23,0.63 0,0.19 -0.06,0.34 -0.18,0.46 -0.11,0.12 -0.27,0.17 -0.46,0.17 -0.15,0 -0.26,-0.03 -0.35,-0.1 -0.08,-0.07 -0.16,-0.14 -0.22,-0.22 -0.03,-0.03 -0.06,-0.07 -0.1,-0.1 -0.04,-0.04 -0.09,-0.07 -0.16,-0.1 -0.07,-0.03 -0.15,-0.06 -0.26,-0.08 -0.11,-0.02 -0.24,-0.03 -0.41,-0.03 -0.52,0 -0.97,0.05 -1.35,0.16 -0.38,0.11 -0.7,0.27 -0.94,0.5 -0.25,0.23 -0.43,0.52 -0.55,0.89 -0.12,0.36 -0.18,0.79 -0.18,1.3 0,0.19 0,0.37 0.01,0.53 0,0.17 0.01,0.33 0.02,0.5 0.01,0.17 0.02,0.33 0.04,0.5 0.01,0.17 0.03,0.35 0.04,0.55 0.01,0.15 0.02,0.3 0.04,0.45 0.02,0.16 0.03,0.31 0.03,0.45 0,0.04 -0.01,0.1 -0.04,0.17 -0.02,0.07 -0.06,0.15 -0.11,0.22 -0.05,0.07 -0.12,0.13 -0.21,0.19 -0.09,0.05 -0.19,0.08 -0.31,0.08 -0.16,0 -0.29,-0.02 -0.4,-0.06 -0.1,-0.04 -0.19,-0.09 -0.25,-0.17 -0.06,-0.08 -0.11,-0.17 -0.13,-0.29 -0.02,-0.11 -0.03,-0.25 -0.03,-0.41z"/>
  <path id="_14" class="fil1" d="M358.19 122.76c0,-0.36 0.05,-0.73 0.16,-1.12 0.1,-0.39 0.25,-0.75 0.44,-1.08 0.18,-0.33 0.41,-0.65 0.68,-0.94 0.27,-0.29 0.57,-0.55 0.9,-0.77 0.33,-0.22 0.69,-0.39 1.07,-0.51 0.38,-0.13 0.78,-0.19 1.2,-0.19 0.32,0 0.62,0.04 0.92,0.13 0.29,0.08 0.57,0.2 0.82,0.35 0.26,0.15 0.49,0.32 0.71,0.52 0.21,0.2 0.39,0.42 0.55,0.65 0.15,0.23 0.27,0.47 0.35,0.73 0.08,0.25 0.12,0.5 0.12,0.76 0,0.23 -0.01,0.42 -0.04,0.6 -0.03,0.17 -0.06,0.34 -0.09,0.51 -0.03,0.17 -0.05,0.35 -0.08,0.54 -0.03,0.19 -0.04,0.4 -0.04,0.65 0,0.21 0.02,0.39 0.05,0.53 0.03,0.14 0.08,0.25 0.14,0.34 0.06,0.09 0.13,0.15 0.22,0.18 0.09,0.03 0.18,0.05 0.28,0.05 0.03,0 0.06,-0.01 0.1,-0.02 0.04,-0.02 0.08,-0.04 0.12,-0.05 0.04,-0.02 0.07,-0.04 0.1,-0.06 0.03,-0.02 0.05,-0.04 0.06,-0.05 0.05,-0.05 0.1,-0.09 0.15,-0.13 0.05,-0.04 0.11,-0.06 0.2,-0.06 0.16,0 0.29,0.04 0.38,0.12 0.08,0.08 0.13,0.21 0.13,0.39 0,0.11 -0.03,0.23 -0.1,0.35 -0.07,0.12 -0.16,0.23 -0.28,0.33 -0.12,0.1 -0.26,0.18 -0.43,0.24 -0.16,0.06 -0.35,0.1 -0.55,0.1 -0.4,0 -0.75,-0.12 -1.04,-0.34 -0.29,-0.23 -0.49,-0.54 -0.62,-0.93 -0.17,0.18 -0.36,0.35 -0.56,0.51 -0.2,0.16 -0.42,0.31 -0.67,0.43 -0.24,0.12 -0.51,0.22 -0.81,0.29 -0.3,0.07 -0.62,0.11 -0.98,0.11 -0.27,0 -0.55,-0.04 -0.83,-0.11 -0.28,-0.07 -0.55,-0.18 -0.82,-0.31 -0.26,-0.13 -0.51,-0.29 -0.74,-0.48 -0.23,-0.19 -0.43,-0.4 -0.6,-0.63 -0.17,-0.23 -0.31,-0.48 -0.41,-0.74 -0.1,-0.27 -0.15,-0.54 -0.15,-0.83zm1.29 -0.01c0,0.28 0.08,0.55 0.23,0.78 0.15,0.24 0.35,0.44 0.59,0.61 0.24,0.17 0.51,0.3 0.81,0.39 0.3,0.09 0.6,0.14 0.89,0.14 0.38,0 0.74,-0.07 1.06,-0.22 0.32,-0.15 0.6,-0.34 0.83,-0.57 0.23,-0.23 0.41,-0.5 0.54,-0.79 0.13,-0.29 0.19,-0.58 0.19,-0.86 0,-0.16 0.03,-0.3 0.11,-0.42 0.07,-0.12 0.14,-0.24 0.2,-0.35 0.02,-0.02 0.03,-0.06 0.03,-0.11 0,-0.05 0,-0.1 0,-0.15 -0,-0.05 -0.01,-0.1 -0.01,-0.15 -0,-0.04 -0,-0.08 -0,-0.1 0,-0.1 -0.04,-0.21 -0.1,-0.33 -0.07,-0.12 -0.16,-0.24 -0.28,-0.36 -0.12,-0.12 -0.25,-0.24 -0.4,-0.35 -0.15,-0.11 -0.3,-0.21 -0.46,-0.3 -0.16,-0.09 -0.31,-0.16 -0.47,-0.21 -0.16,-0.05 -0.3,-0.08 -0.42,-0.08 -0.35,0 -0.67,0.05 -0.97,0.14 -0.3,0.1 -0.58,0.23 -0.82,0.39 -0.25,0.17 -0.47,0.36 -0.66,0.58 -0.19,0.22 -0.36,0.46 -0.49,0.71 -0.13,0.25 -0.23,0.51 -0.3,0.78 -0.07,0.27 -0.1,0.54 -0.1,0.79z"/>
  <path id="_15" class="fil1" d="M371.22 125.74c-0.43,-0.62 -0.79,-1.27 -1.09,-1.96 -0.3,-0.69 -0.56,-1.38 -0.78,-2.07 -0.06,-0.21 -0.13,-0.42 -0.2,-0.63 -0.07,-0.21 -0.14,-0.43 -0.22,-0.63 -0.05,-0.13 -0.11,-0.26 -0.17,-0.38 -0.06,-0.12 -0.12,-0.25 -0.18,-0.37 -0.06,-0.12 -0.1,-0.25 -0.14,-0.38 -0.04,-0.13 -0.06,-0.27 -0.06,-0.42 0,-0.07 0,-0.13 0.02,-0.2 0.01,-0.07 0.04,-0.13 0.08,-0.19 0.04,-0.06 0.09,-0.11 0.16,-0.15 0.07,-0.04 0.16,-0.05 0.27,-0.05 0.14,0 0.26,0.01 0.35,0.04 0.09,0.02 0.17,0.07 0.24,0.13 0.06,0.06 0.12,0.14 0.16,0.24 0.04,0.1 0.09,0.22 0.14,0.36 0.13,0.38 0.26,0.77 0.39,1.16 0.13,0.4 0.27,0.8 0.42,1.2 0.15,0.4 0.31,0.8 0.47,1.2 0.17,0.4 0.35,0.8 0.56,1.19 0.02,0.04 0.04,0.09 0.06,0.15 0.02,0.07 0.05,0.13 0.07,0.2 0.03,0.07 0.05,0.12 0.08,0.18 0.03,0.05 0.05,0.07 0.08,0.07 0.04,0 0.1,-0.07 0.19,-0.22 0.09,-0.15 0.19,-0.33 0.3,-0.56 0.11,-0.23 0.24,-0.48 0.37,-0.76 0.13,-0.28 0.26,-0.56 0.39,-0.83 0.12,-0.27 0.24,-0.52 0.35,-0.75 0.11,-0.23 0.19,-0.4 0.25,-0.53 0.05,-0.1 0.11,-0.23 0.2,-0.38 0.08,-0.15 0.17,-0.32 0.26,-0.5 0.1,-0.18 0.2,-0.36 0.3,-0.55 0.1,-0.19 0.2,-0.36 0.3,-0.52 0.1,-0.16 0.19,-0.31 0.27,-0.43 0.08,-0.12 0.15,-0.21 0.2,-0.26 0.07,-0.04 0.13,-0.08 0.2,-0.11 0.07,-0.03 0.13,-0.05 0.19,-0.05 0.17,0 0.3,0.07 0.4,0.21 0.1,0.14 0.15,0.31 0.15,0.52 0,0.18 -0.07,0.39 -0.2,0.62 -0.13,0.23 -0.28,0.48 -0.46,0.76 -0.12,0.19 -0.25,0.4 -0.39,0.62 -0.13,0.22 -0.24,0.43 -0.33,0.64 -0.08,0.19 -0.18,0.41 -0.3,0.65 -0.11,0.24 -0.24,0.49 -0.38,0.76 -0.14,0.26 -0.28,0.53 -0.44,0.81 -0.15,0.28 -0.31,0.54 -0.46,0.8 -0.15,0.26 -0.31,0.5 -0.45,0.73 -0.15,0.23 -0.29,0.43 -0.42,0.6 -0.07,0.09 -0.17,0.15 -0.3,0.19 -0.14,0.04 -0.27,0.06 -0.41,0.06 -0.11,0 -0.21,-0.02 -0.31,-0.06 -0.1,-0.04 -0.17,-0.08 -0.19,-0.12z"/>
  <path id="_16" class="fil1" d="M377.44 122.42c0,-0.65 0.09,-1.24 0.28,-1.77 0.19,-0.53 0.47,-0.98 0.83,-1.35 0.37,-0.37 0.82,-0.66 1.35,-0.86 0.53,-0.2 1.15,-0.3 1.85,-0.3 0.24,0 0.48,0.03 0.73,0.07 0.25,0.05 0.49,0.12 0.73,0.22 0.24,0.1 0.46,0.22 0.66,0.36 0.21,0.14 0.39,0.31 0.55,0.49 0.16,0.19 0.28,0.39 0.37,0.62 0.09,0.23 0.13,0.47 0.13,0.74 0,0.2 -0.05,0.35 -0.14,0.45 -0.09,0.09 -0.21,0.16 -0.36,0.19 -0.13,0.04 -0.29,0.07 -0.47,0.1 -0.18,0.03 -0.37,0.08 -0.59,0.15l-4.6 1.43c0.06,0.28 0.16,0.52 0.29,0.72 0.13,0.2 0.29,0.36 0.47,0.49 0.18,0.13 0.38,0.24 0.59,0.32 0.21,0.08 0.43,0.14 0.64,0.18 0.21,0.04 0.43,0.06 0.63,0.07 0.2,0.01 0.39,0.02 0.55,0.02 0.26,0 0.52,-0.03 0.78,-0.09 0.26,-0.06 0.49,-0.12 0.71,-0.2 0.22,-0.07 0.41,-0.14 0.57,-0.2 0.16,-0.06 0.28,-0.09 0.35,-0.09 0.24,0 0.42,0.06 0.53,0.17 0.11,0.11 0.17,0.28 0.17,0.51 0,0.15 -0.08,0.28 -0.23,0.39 -0.16,0.11 -0.35,0.2 -0.6,0.28 -0.24,0.07 -0.51,0.13 -0.81,0.17 -0.3,0.04 -0.58,0.08 -0.87,0.1 -0.28,0.02 -0.54,0.03 -0.78,0.04 -0.23,0.01 -0.41,0.01 -0.53,0.01 -0.32,0 -0.63,-0.04 -0.95,-0.12 -0.31,-0.08 -0.61,-0.19 -0.89,-0.34 -0.28,-0.15 -0.55,-0.32 -0.78,-0.53 -0.24,-0.21 -0.45,-0.44 -0.63,-0.7 -0.18,-0.25 -0.31,-0.53 -0.41,-0.82 -0.1,-0.29 -0.15,-0.6 -0.15,-0.92zm1.28 -0.54c0.22,-0.06 0.47,-0.14 0.74,-0.22 0.28,-0.08 0.57,-0.17 0.88,-0.27 0.31,-0.09 0.62,-0.19 0.94,-0.29 0.32,-0.1 0.62,-0.2 0.92,-0.3 0.3,-0.1 0.57,-0.19 0.82,-0.28 0.25,-0.09 0.46,-0.17 0.63,-0.25 -0.05,-0.17 -0.14,-0.32 -0.26,-0.45 -0.12,-0.12 -0.27,-0.23 -0.45,-0.31 -0.18,-0.08 -0.39,-0.14 -0.63,-0.18 -0.24,-0.04 -0.5,-0.06 -0.78,-0.06 -0.13,0 -0.28,0.02 -0.46,0.05 -0.18,0.04 -0.36,0.09 -0.56,0.18 -0.19,0.08 -0.39,0.19 -0.59,0.32 -0.2,0.13 -0.38,0.3 -0.55,0.49 -0.17,0.19 -0.31,0.42 -0.43,0.68 -0.12,0.26 -0.2,0.56 -0.24,0.89z"/>
  <path id="_17" class="fil1" d="M387.37 124.47c-0.02,-0.1 -0.03,-0.22 -0.03,-0.34 0,-0.12 0,-0.25 0,-0.36 0,-0.31 -0.01,-0.61 -0.02,-0.91 -0.01,-0.3 -0.03,-0.6 -0.05,-0.9 -0.01,-0.3 -0.03,-0.6 -0.04,-0.9 -0.01,-0.3 -0.01,-0.61 -0,-0.92l0.06 -3.59c0,-0.3 0.04,-0.55 0.14,-0.74 0.09,-0.19 0.26,-0.28 0.5,-0.28 0.09,0 0.17,0.02 0.24,0.05 0.07,0.04 0.13,0.08 0.18,0.14 0.05,0.06 0.09,0.12 0.12,0.19 0.03,0.07 0.04,0.14 0.04,0.2l0 5.05c0,0.5 0.01,1 0.03,1.5 0.02,0.5 0.08,1.01 0.17,1.52 0.01,0.08 0.04,0.15 0.06,0.2 0.03,0.05 0.07,0.09 0.1,0.12 0.04,0.03 0.08,0.05 0.13,0.06 0.05,0.01 0.09,0.01 0.13,0.01 0.07,0 0.13,-0.01 0.17,-0.04 0.05,-0.03 0.08,-0.06 0.1,-0.08 0.03,-0.03 0.06,-0.06 0.09,-0.09 0.03,-0.03 0.06,-0.06 0.1,-0.08 0.04,-0.03 0.08,-0.04 0.14,-0.06 0.05,-0.01 0.11,-0.02 0.19,-0.02 0.08,0 0.16,0.02 0.21,0.05 0.06,0.04 0.11,0.08 0.15,0.13 0.04,0.06 0.07,0.12 0.09,0.19 0.02,0.07 0.03,0.14 0.03,0.21 0,0.14 -0.04,0.27 -0.13,0.39 -0.08,0.12 -0.19,0.22 -0.32,0.3 -0.13,0.08 -0.27,0.15 -0.42,0.19 -0.15,0.05 -0.29,0.07 -0.43,0.07 -0.48,0.01 -0.86,-0.09 -1.15,-0.31 -0.29,-0.21 -0.48,-0.53 -0.58,-0.95z"/>
  <path id="_18" class="fil1" d="M396.74 122.03c0,-0.71 0.11,-1.31 0.34,-1.81 0.23,-0.5 0.53,-0.9 0.9,-1.21 0.38,-0.31 0.8,-0.54 1.27,-0.67 0.48,-0.14 0.96,-0.21 1.46,-0.21 0.57,0 1.09,0.09 1.55,0.28 0.46,0.19 0.84,0.46 1.16,0.81 0.32,0.35 0.56,0.78 0.73,1.28 0.17,0.5 0.25,1.07 0.25,1.69 0,0.36 -0.05,0.7 -0.14,1.02 -0.1,0.32 -0.23,0.62 -0.4,0.89 -0.17,0.27 -0.37,0.52 -0.61,0.73 -0.24,0.21 -0.5,0.4 -0.78,0.55 -0.28,0.15 -0.58,0.27 -0.89,0.35 -0.31,0.08 -0.63,0.12 -0.95,0.12 -0.35,0 -0.69,-0.05 -1.01,-0.16 -0.33,-0.11 -0.64,-0.26 -0.93,-0.44 -0.29,-0.19 -0.55,-0.41 -0.8,-0.66 -0.24,-0.25 -0.45,-0.52 -0.62,-0.8 -0.17,-0.28 -0.31,-0.58 -0.4,-0.88 -0.1,-0.3 -0.14,-0.6 -0.14,-0.89zm1.19 -0.17c0,0.34 0.07,0.68 0.22,1.02 0.15,0.34 0.34,0.65 0.58,0.93 0.24,0.28 0.52,0.5 0.82,0.67 0.31,0.17 0.63,0.26 0.95,0.26 0.35,0 0.69,-0.06 1.01,-0.18 0.33,-0.12 0.62,-0.29 0.87,-0.52 0.25,-0.23 0.45,-0.51 0.6,-0.84 0.15,-0.33 0.23,-0.7 0.23,-1.13 0,-0.41 -0.06,-0.79 -0.17,-1.13 -0.11,-0.34 -0.27,-0.64 -0.47,-0.88 -0.2,-0.25 -0.43,-0.44 -0.71,-0.58 -0.27,-0.14 -0.57,-0.2 -0.89,-0.2 -0.36,0 -0.72,0.06 -1.08,0.17 -0.36,0.11 -0.69,0.28 -0.98,0.5 -0.29,0.22 -0.53,0.49 -0.71,0.81 -0.18,0.32 -0.27,0.69 -0.27,1.11z"/>
  <path id="_19" class="fil1" d="M407.91 124.98c0,-0.04 -0.01,-0.11 -0.02,-0.22 -0.01,-0.1 -0.03,-0.23 -0.05,-0.37 -0.02,-0.14 -0.03,-0.29 -0.05,-0.46 -0.01,-0.16 -0.02,-0.32 -0.02,-0.48 0,-0.13 0,-0.32 0.01,-0.58 0,-0.26 0.01,-0.55 0.01,-0.89 0,-0.33 0.01,-0.69 0.01,-1.08 0,-0.39 0.01,-0.78 0.01,-1.17l-0.06 0 -1.29 0.08c-0.09,0 -0.18,-0.02 -0.25,-0.05 -0.08,-0.04 -0.15,-0.08 -0.2,-0.14 -0.05,-0.06 -0.1,-0.12 -0.13,-0.19 -0.03,-0.07 -0.05,-0.14 -0.05,-0.22 0,-0.09 0.02,-0.17 0.05,-0.25 0.03,-0.08 0.08,-0.15 0.13,-0.21 0.06,-0.06 0.13,-0.11 0.2,-0.15 0.08,-0.04 0.16,-0.05 0.25,-0.05l1.34 0.03c0.01,0 0.02,0 0.03,0 0.01,0 0.03,0 0.04,0 0.02,-0.12 0.04,-0.24 0.06,-0.37 0.02,-0.13 0.04,-0.25 0.07,-0.37 0.02,-0.12 0.04,-0.22 0.06,-0.31 0.02,-0.09 0.03,-0.15 0.04,-0.18 0.2,-0.76 0.55,-1.34 1.07,-1.73 0.51,-0.39 1.15,-0.59 1.92,-0.59 0.08,0 0.18,0.01 0.31,0.04 0.13,0.02 0.27,0.06 0.42,0.1 0.15,0.04 0.3,0.1 0.45,0.16 0.15,0.06 0.29,0.14 0.41,0.22 0.12,0.08 0.22,0.17 0.3,0.27 0.08,0.1 0.12,0.2 0.12,0.32 0,0.04 -0.01,0.1 -0.01,0.16 -0.01,0.07 -0.02,0.14 -0.05,0.2 -0.03,0.07 -0.06,0.12 -0.11,0.17 -0.05,0.05 -0.11,0.07 -0.2,0.07 -0.17,0 -0.31,-0.03 -0.42,-0.08 -0.11,-0.05 -0.21,-0.11 -0.32,-0.19 -0.1,-0.07 -0.22,-0.13 -0.35,-0.19 -0.13,-0.05 -0.31,-0.08 -0.53,-0.08 -0.39,0 -0.7,0.07 -0.93,0.2 -0.24,0.13 -0.42,0.31 -0.56,0.53 -0.14,0.22 -0.23,0.48 -0.29,0.77 -0.06,0.29 -0.1,0.59 -0.12,0.9 0.18,0 0.35,0.01 0.49,0.01 0.14,0 0.27,0 0.38,0 0.11,0 0.21,0 0.3,-0 0.09,-0 0.17,-0 0.25,-0 0.13,0 0.27,-0 0.41,-0 0.14,-0 0.27,-0.01 0.41,-0.02l0.01 0c0.08,-0.01 0.17,-0.02 0.26,-0.02 0.09,-0 0.18,-0.01 0.27,-0.01 0.06,0 0.12,0.01 0.19,0.02 0.07,0.02 0.13,0.05 0.18,0.09 0.06,0.04 0.1,0.1 0.13,0.18 0.03,0.08 0.05,0.17 0.05,0.29 0,0.16 -0.03,0.29 -0.08,0.38 -0.06,0.09 -0.13,0.16 -0.21,0.2 -0.08,0.05 -0.17,0.07 -0.26,0.08 -0.09,0.01 -0.18,0.01 -0.24,0.01 -0.09,0 -0.19,-0.01 -0.3,-0.01 -0.12,-0.01 -0.26,-0.02 -0.43,-0.03 -0.17,-0.01 -0.38,-0.03 -0.63,-0.03 -0.25,-0.01 -0.55,-0.01 -0.89,-0.01 -0.03,0 -0.06,-0 -0.1,-0.01 -0.04,-0.01 -0.11,-0.01 -0.21,-0.01 -0.01,0.35 -0.02,0.71 -0.02,1.09 -0,0.39 -0.01,0.8 -0.01,1.23 0,0.21 -0,0.41 -0.01,0.6 -0.01,0.19 -0.01,0.39 -0.01,0.58 0,0.09 0.01,0.18 0.01,0.28 0.01,0.1 0.02,0.21 0.04,0.35 0.02,0.14 0.04,0.31 0.07,0.5 0.03,0.2 0.07,0.44 0.12,0.74 0.04,0.26 0.01,0.44 -0.08,0.55 -0.1,0.1 -0.23,0.15 -0.39,0.15 -0.19,0 -0.34,-0.01 -0.47,-0.04 -0.12,-0.03 -0.22,-0.07 -0.29,-0.13 -0.07,-0.06 -0.12,-0.14 -0.15,-0.24 -0.03,-0.1 -0.04,-0.23 -0.04,-0.38z"/>
  <path id="_20" class="fil1" d="M417.99 125.8c-0.45,0 -0.83,-0.09 -1.13,-0.27 -0.3,-0.18 -0.54,-0.42 -0.72,-0.73 -0.18,-0.31 -0.32,-0.66 -0.41,-1.05 -0.09,-0.39 -0.15,-0.8 -0.19,-1.22 -0.04,-0.43 -0.06,-0.85 -0.06,-1.27 -0,-0.42 -0.01,-0.81 -0.02,-1.17 -0.12,0 -0.24,0 -0.33,0 -0.1,0 -0.2,0 -0.29,0.01 -0.05,0 -0.11,0.01 -0.15,0.01 -0.05,0 -0.1,0 -0.15,0.01 -0.05,0 -0.11,0 -0.18,0.01 -0.07,0 -0.15,0 -0.24,0 -0.06,0 -0.13,-0.01 -0.22,-0.04 -0.09,-0.03 -0.18,-0.07 -0.28,-0.12 -0.09,-0.05 -0.17,-0.11 -0.24,-0.19 -0.07,-0.08 -0.1,-0.16 -0.1,-0.26 0,-0.1 0.02,-0.19 0.06,-0.27 0.04,-0.08 0.1,-0.15 0.17,-0.21 0.07,-0.06 0.15,-0.1 0.25,-0.14 0.1,-0.03 0.2,-0.05 0.3,-0.05l1.44 0.03c0.01,-0.11 0.03,-0.23 0.04,-0.35 0.01,-0.11 0.03,-0.23 0.04,-0.34 0.01,-0.13 0.02,-0.26 0.03,-0.37 0,-0.12 0.01,-0.23 0.02,-0.33 0.01,-0.11 0.02,-0.22 0.03,-0.32 0.01,-0.11 0.03,-0.22 0.06,-0.34 0.01,-0.08 0.05,-0.15 0.1,-0.23 0.05,-0.08 0.11,-0.14 0.18,-0.2 0.07,-0.06 0.14,-0.11 0.21,-0.15 0.07,-0.04 0.15,-0.05 0.22,-0.05 0.05,0 0.11,0.01 0.17,0.04 0.06,0.03 0.11,0.07 0.17,0.12 0.05,0.05 0.09,0.12 0.13,0.19 0.03,0.07 0.05,0.15 0.05,0.24 0,0.18 -0,0.34 -0.01,0.46 -0,0.12 -0.01,0.23 -0.01,0.32 -0.01,0.09 -0.01,0.16 -0.02,0.23 -0.01,0.06 -0.02,0.13 -0.03,0.19 -0.01,0.05 -0.02,0.1 -0.03,0.16 -0.01,0.06 -0.01,0.12 -0.02,0.2 -0,0.07 -0.01,0.16 -0.02,0.25 -0.01,0.09 -0.02,0.2 -0.03,0.33 0.26,-0 0.51,-0.01 0.74,-0.02 0.24,-0.01 0.47,-0.01 0.7,-0.02 0.23,-0.01 0.46,-0.01 0.7,-0.02 0.24,-0.01 0.49,-0.01 0.76,-0.01 0.09,0 0.17,0.02 0.24,0.07 0.07,0.05 0.13,0.11 0.18,0.18 0.05,0.07 0.08,0.14 0.11,0.22 0.03,0.08 0.04,0.14 0.04,0.2 0,0.1 -0.02,0.18 -0.06,0.26 -0.04,0.07 -0.09,0.14 -0.15,0.19 -0.06,0.05 -0.13,0.09 -0.2,0.11 -0.07,0.02 -0.14,0.04 -0.2,0.04l-2.81 -0.05c-0.02,0.02 -0.03,0.04 -0.03,0.06 0,0.24 -0,0.52 -0.01,0.84 -0.01,0.31 -0.01,0.63 -0,0.96 0.01,0.33 0.03,0.65 0.06,0.96 0.03,0.32 0.09,0.59 0.18,0.84 0.08,0.24 0.2,0.44 0.35,0.59 0.15,0.15 0.34,0.23 0.58,0.23 0.08,0 0.17,-0.02 0.28,-0.04 0.11,-0.03 0.22,-0.07 0.32,-0.11 0.11,-0.04 0.2,-0.09 0.3,-0.14 0.09,-0.05 0.16,-0.1 0.21,-0.14 0.05,-0.05 0.12,-0.09 0.2,-0.12 0.08,-0.04 0.15,-0.05 0.21,-0.05 0.17,0 0.29,0.04 0.33,0.13 0.05,0.08 0.07,0.2 0.07,0.35 0,0.05 -0.01,0.11 -0.04,0.18 -0.02,0.07 -0.05,0.13 -0.09,0.17 -0.09,0.11 -0.2,0.23 -0.34,0.35 -0.14,0.12 -0.29,0.23 -0.45,0.33 -0.16,0.1 -0.32,0.18 -0.49,0.24 -0.16,0.06 -0.32,0.1 -0.45,0.1z"/>
  <path id="_21" class="fil1" d="M421.73 122.42c0,-0.65 0.09,-1.24 0.28,-1.77 0.19,-0.53 0.47,-0.98 0.83,-1.35 0.37,-0.37 0.82,-0.66 1.35,-0.86 0.53,-0.2 1.15,-0.3 1.85,-0.3 0.24,0 0.48,0.03 0.73,0.07 0.25,0.05 0.49,0.12 0.73,0.22 0.24,0.1 0.46,0.22 0.66,0.36 0.21,0.14 0.39,0.31 0.55,0.49 0.16,0.19 0.28,0.39 0.37,0.62 0.09,0.23 0.13,0.47 0.13,0.74 0,0.2 -0.05,0.35 -0.14,0.45 -0.09,0.09 -0.21,0.16 -0.36,0.19 -0.13,0.04 -0.29,0.07 -0.47,0.1 -0.18,0.03 -0.37,0.08 -0.59,0.15l-4.6 1.43c0.06,0.28 0.16,0.52 0.29,0.72 0.13,0.2 0.29,0.36 0.47,0.49 0.18,0.13 0.38,0.24 0.59,0.32 0.21,0.08 0.43,0.14 0.64,0.18 0.21,0.04 0.43,0.06 0.63,0.07 0.2,0.01 0.39,0.02 0.55,0.02 0.26,0 0.52,-0.03 0.78,-0.09 0.26,-0.06 0.49,-0.12 0.71,-0.2 0.22,-0.07 0.41,-0.14 0.57,-0.2 0.16,-0.06 0.28,-0.09 0.35,-0.09 0.24,0 0.42,0.06 0.53,0.17 0.11,0.11 0.17,0.28 0.17,0.51 0,0.15 -0.08,0.28 -0.23,0.39 -0.16,0.11 -0.35,0.2 -0.6,0.28 -0.24,0.07 -0.51,0.13 -0.81,0.17 -0.3,0.04 -0.58,0.08 -0.87,0.1 -0.28,0.02 -0.54,0.03 -0.78,0.04 -0.23,0.01 -0.41,0.01 -0.53,0.01 -0.32,0 -0.63,-0.04 -0.95,-0.12 -0.31,-0.08 -0.61,-0.19 -0.89,-0.34 -0.28,-0.15 -0.55,-0.32 -0.78,-0.53 -0.24,-0.21 -0.45,-0.44 -0.63,-0.7 -0.18,-0.25 -0.31,-0.53 -0.41,-0.82 -0.1,-0.29 -0.15,-0.6 -0.15,-0.92zm1.28 -0.54c0.22,-0.06 0.47,-0.14 0.74,-0.22 0.28,-0.08 0.57,-0.17 0.88,-0.27 0.31,-0.09 0.62,-0.19 0.94,-0.29 0.32,-0.1 0.62,-0.2 0.92,-0.3 0.3,-0.1 0.57,-0.19 0.82,-0.28 0.25,-0.09 0.46,-0.17 0.63,-0.25 -0.05,-0.17 -0.14,-0.32 -0.26,-0.45 -0.12,-0.12 -0.27,-0.23 -0.45,-0.31 -0.18,-0.08 -0.39,-0.14 -0.63,-0.18 -0.24,-0.04 -0.5,-0.06 -0.78,-0.06 -0.13,0 -0.28,0.02 -0.46,0.05 -0.18,0.04 -0.36,0.09 -0.56,0.18 -0.19,0.08 -0.39,0.19 -0.59,0.32 -0.2,0.13 -0.38,0.3 -0.55,0.49 -0.17,0.19 -0.31,0.42 -0.43,0.68 -0.12,0.26 -0.2,0.56 -0.24,0.89z"/>
  <path id="_22" class="fil1" d="M431.54 125.07c0,-0.07 0,-0.16 0.01,-0.28 0,-0.12 0.01,-0.28 0.01,-0.47 0,-0.31 -0.01,-0.64 -0.03,-0.99 -0.02,-0.35 -0.04,-0.71 -0.06,-1.08 -0.02,-0.38 -0.04,-0.76 -0.05,-1.16 -0.02,-0.4 -0.02,-0.8 -0.02,-1.22 0,-0.16 0.01,-0.34 0.02,-0.54 0.01,-0.2 0.04,-0.38 0.08,-0.56 0.04,-0.17 0.1,-0.32 0.18,-0.43 0.08,-0.12 0.18,-0.18 0.32,-0.18 0.14,0 0.25,0.04 0.33,0.13 0.08,0.09 0.14,0.2 0.18,0.34 0.04,0.14 0.06,0.3 0.07,0.48 0.01,0.18 0.01,0.35 0.01,0.53 0.16,-0.23 0.36,-0.45 0.61,-0.64 0.25,-0.19 0.51,-0.35 0.8,-0.49 0.28,-0.13 0.57,-0.23 0.85,-0.31 0.29,-0.07 0.56,-0.11 0.81,-0.11 0.45,0 0.85,0.07 1.19,0.2 0.34,0.13 0.64,0.31 0.89,0.53 0.25,0.23 0.46,0.48 0.62,0.78 0.17,0.3 0.3,0.61 0.4,0.94 0.1,0.33 0.17,0.67 0.22,1.01 0.04,0.35 0.07,0.68 0.07,1l0 1.17c0,0.3 -0.02,0.58 -0.06,0.86 -0.04,0.28 -0.1,0.52 -0.17,0.74 -0.07,0.21 -0.16,0.39 -0.27,0.52 -0.11,0.13 -0.23,0.19 -0.37,0.19 -0.1,0 -0.2,-0.01 -0.28,-0.02 -0.09,-0.01 -0.16,-0.05 -0.23,-0.1 -0.07,-0.05 -0.12,-0.13 -0.16,-0.24 -0.03,-0.11 -0.05,-0.26 -0.05,-0.45 0,-0.18 0.02,-0.37 0.05,-0.56 0.04,-0.19 0.08,-0.39 0.12,-0.59 0.04,-0.2 0.08,-0.39 0.12,-0.59 0.04,-0.2 0.05,-0.39 0.05,-0.58 0,-0.22 -0,-0.43 -0.02,-0.64 -0.01,-0.21 -0.04,-0.42 -0.07,-0.63 -0.03,-0.21 -0.09,-0.41 -0.15,-0.6 -0.07,-0.19 -0.16,-0.38 -0.27,-0.56 -0.09,-0.15 -0.19,-0.29 -0.29,-0.43 -0.1,-0.14 -0.22,-0.27 -0.36,-0.38 -0.14,-0.11 -0.31,-0.2 -0.51,-0.26 -0.2,-0.07 -0.44,-0.1 -0.73,-0.1 -0.2,0 -0.42,0.04 -0.67,0.12 -0.25,0.08 -0.51,0.2 -0.76,0.35 -0.25,0.15 -0.5,0.33 -0.73,0.54 -0.23,0.21 -0.43,0.44 -0.58,0.7l0 1.76c0,0.06 0,0.14 0.01,0.23 0.01,0.09 0.02,0.2 0.03,0.31 0.01,0.12 0.03,0.24 0.05,0.37 0.02,0.13 0.04,0.25 0.07,0.38 0.04,0.19 0.08,0.38 0.13,0.55 0.05,0.17 0.08,0.34 0.08,0.49 0,0.11 -0,0.21 -0.01,0.3 -0.01,0.1 -0.03,0.18 -0.07,0.25 -0.04,0.07 -0.1,0.13 -0.18,0.17 -0.08,0.04 -0.2,0.06 -0.35,0.06 -0.1,0 -0.2,-0.01 -0.3,-0.02 -0.1,-0.02 -0.19,-0.05 -0.28,-0.11 -0.08,-0.05 -0.16,-0.14 -0.21,-0.24 -0.05,-0.11 -0.08,-0.25 -0.08,-0.44z"/>
  <path id="_23" class="fil1" d="M442.52 123.06c-0.09,0 -0.17,-0.02 -0.24,-0.05 -0.07,-0.04 -0.12,-0.08 -0.16,-0.13 -0.04,-0.06 -0.07,-0.12 -0.1,-0.19 -0.02,-0.08 -0.03,-0.15 -0.03,-0.23 0,-0.3 0.02,-0.63 0.04,-0.98 0.02,-0.35 0.04,-0.71 0.06,-1.06 0.02,-0.36 0.04,-0.71 0.05,-1.06 0.02,-0.34 0.02,-0.67 0.02,-0.97 0,-0.17 -0.01,-0.33 -0.03,-0.5 -0.02,-0.17 -0.04,-0.33 -0.07,-0.5 -0.03,-0.17 -0.05,-0.34 -0.07,-0.51 -0.02,-0.17 -0.03,-0.35 -0.03,-0.53 0,-0.13 0.02,-0.25 0.06,-0.36 0.04,-0.11 0.09,-0.21 0.15,-0.29 0.06,-0.08 0.14,-0.15 0.23,-0.2 0.09,-0.05 0.19,-0.07 0.29,-0.07 0.28,0 0.47,0.07 0.58,0.21 0.11,0.14 0.16,0.34 0.16,0.62 0,0.16 -0.01,0.38 -0.02,0.67 -0.01,0.28 -0.03,0.64 -0.05,1.07 -0.02,0.43 -0.06,0.93 -0.1,1.51 -0.04,0.58 -0.09,1.23 -0.15,1.97 -0,0.06 -0.01,0.14 -0.02,0.24 -0.01,0.1 -0.02,0.21 -0.03,0.33 -0.02,0.12 -0.04,0.23 -0.07,0.36 -0.03,0.12 -0.06,0.23 -0.11,0.33 -0.04,0.1 -0.1,0.18 -0.16,0.24 -0.06,0.06 -0.14,0.09 -0.23,0.09zm-0.99 1.75c0,-0.12 0.02,-0.23 0.08,-0.32 0.05,-0.09 0.12,-0.17 0.2,-0.23 0.08,-0.06 0.17,-0.11 0.27,-0.14 0.1,-0.03 0.2,-0.05 0.31,-0.05 0.16,0 0.29,0.04 0.39,0.1 0.09,0.07 0.17,0.16 0.22,0.27 0.05,0.11 0.08,0.23 0.1,0.37 0.01,0.14 0.02,0.28 0.02,0.41 0,0.07 -0,0.14 -0.02,0.22 -0.01,0.08 -0.04,0.15 -0.08,0.22 -0.04,0.07 -0.1,0.13 -0.18,0.17 -0.08,0.05 -0.18,0.07 -0.32,0.07 -0.36,0 -0.61,-0.1 -0.76,-0.29 -0.15,-0.19 -0.23,-0.46 -0.23,-0.81z"/>
  <polygon class="fil1" points="182.56,107.16 182.56,68.75 167.55,68.75 167.55,55.05 214.3,55.05 214.3,68.75 199.3,68.75 199.3,107.16 "/>
  <polygon id="_1_0" class="fil1" points="220.03,107.16 220.03,55.05 237.06,55.05 237.06,107.16 "/>
  <polygon id="_2_1" class="fil1" points="244.8,107.16 244.8,94.64 268.96,68.53 245.6,68.53 245.6,55.05 289.52,55.05 289.52,67.47 265.1,93.75 290.83,93.75 290.83,107.16 "/>
  <polygon id="_3_2" class="fil1" points="298.37,107.16 298.37,55.05 340.03,55.05 340.03,67.52 315.11,67.52 315.11,74.47 336.18,74.47 336.18,86.43 315.11,86.43 315.11,94.48 341.06,94.48 341.06,107.16 "/>
  <polygon id="_4_3" class="fil1" points="348.87,107.16 348.87,55.05 365.62,55.05 365.62,93.32 388.37,93.32 388.37,107.16 "/>
  <path id="_5_4" class="fil1" d="M411.58 89.33l10.51 0 -5.19 -18.05 -5.32 18.05zm-21.53 17.83l18.34 -52.11 16.96 0 18.34 52.11 -16.6 0 -1.96 -6.89 -16.6 0 -2.02 6.89 -16.47 0z"/>
 </g>
</svg>
